<svg xmlns="http://www.w3.org/2000/svg" xmlns:v="https://svgstorm.com"
viewBox = "0 0 512 512"
width="512"
height="512">
<g fill="None" fill-opacity="0.0" stroke="#000000" stroke-opacity="0.00" stroke-width="0.3"><path d="
M 0.00 512.00 
L 512.00 512.00
L 512.00 0.00
L 0.00 0.00
L 0.00 512.00
M 251.00 10.00 
C 252.57 14.48 257.51 17.86 261.00 21.00
C 254.05 29.00 241.56 38.93 250.39 47.75 C 259.22 56.58 264.93 63.02 263.79 75.23 C 262.64 87.44 254.20 90.23 246.00 102.00
C 241.53 98.97 238.43 93.98 234.00 91.00
C 240.40 83.38 255.02 73.02 245.81 64.75 C 236.61 56.47 231.06 47.91 232.66 36.32 C 234.27 24.73 240.37 19.56 251.00 10.00
M 387.00 18.00 
C 388.57 22.48 393.51 25.86 397.00 29.00
C 390.05 37.00 377.56 46.93 386.39 55.75 C 395.23 64.58 400.93 71.02 399.79 83.23 C 398.65 95.44 390.20 98.23 382.00 110.00
C 377.53 106.97 374.43 101.98 370.00 99.00
C 376.40 91.38 391.02 81.02 381.81 72.75 C 372.61 64.47 367.06 55.91 368.66 44.32 C 370.27 32.73 376.37 27.56 387.00 18.00
M 147.00 34.00 
C 148.57 38.48 153.51 41.86 157.00 45.00
C 150.05 53.00 137.56 62.93 146.39 71.75 C 155.23 80.58 160.93 87.02 159.79 99.23 C 158.65 111.44 150.20 114.23 142.00 126.00
C 137.53 122.97 134.43 117.98 130.00 115.00
C 136.40 107.38 151.02 97.02 141.81 88.75 C 132.61 80.47 127.06 71.91 128.66 60.32 C 130.27 48.73 136.37 43.56 147.00 34.00
M 292.00 40.00 
C 310.30 60.85 329.46 79.23 349.75 99.25 C 370.04 119.27 383.76 133.34 390.58 151.77 C 397.39 170.20 402.90 193.75 398.00 221.00 C 393.10 248.25 376.89 276.77 355.00 296.00
C 369.97 295.28 381.70 296.96 397.00 296.00 C 412.30 295.04 423.67 297.80 440.00 296.00 C 456.33 294.20 457.42 308.84 456.00 323.00 C 454.58 337.16 456.80 351.76 456.00 366.00 C 455.20 380.24 456.71 394.74 456.00 409.00 C 455.29 423.26 457.09 437.76 456.00 452.00 C 454.91 466.24 458.20 480.85 456.00 495.00 C 453.80 509.15 435.10 503.21 423.00 504.00 C 410.90 504.79 393.33 503.64 380.00 504.00 C 366.67 504.36 350.88 503.82 337.00 504.00 C 323.12 504.18 308.14 503.89 294.00 504.00 C 279.86 504.11 265.27 503.88 251.00 504.00 C 236.73 504.12 222.35 503.80 208.00 504.00 C 193.65 504.20 179.45 503.58 165.00 504.00 C 150.55 504.42 136.62 503.09 122.00 504.00 C 107.38 504.91 95.12 501.93 80.00 504.00 C 64.88 506.07 53.73 501.29 56.00 485.00 C 58.27 468.71 55.12 457.35 56.00 442.00 C 56.88 426.65 55.92 414.10 56.00 399.00 C 56.08 383.90 56.67 371.35 56.00 356.00 C 55.33 340.65 57.88 329.28 56.00 313.00 C 54.12 296.72 67.37 294.10 82.00 296.00 C 96.63 297.90 110.45 294.58 125.00 296.00
C 111.82 279.75 102.45 257.88 104.99 236.99 C 107.54 216.10 109.46 204.59 119.39 192.25 C 129.32 179.91 142.77 168.78 154.75 164.74 C 166.73 160.69 182.11 156.08 188.71 141.70 C 195.32 127.31 187.44 95.99 196.00 80.00
C 198.68 81.33 201.11 80.21 204.00 80.00
C 221.19 99.69 241.33 119.83 261.00 137.00
C 265.12 127.61 269.65 120.85 272.64 111.30 C 275.63 101.75 277.72 94.81 279.76 83.75 C 281.80 72.69 275.92 49.35 284.00 40.00
C 286.68 41.33 289.11 40.21 292.00 40.00 Z"/>
</g>
<g fill="None" fill-opacity="0.0" stroke="#000000" stroke-opacity="0.97" stroke-width="0.3"><path d="
M 251.00 10.00 
C 240.37 19.56 234.27 24.73 232.66 36.32 C 231.06 47.91 236.61 56.47 245.81 64.75 C 255.02 73.02 240.40 83.38 234.00 91.00
C 238.43 93.98 241.53 98.97 246.00 102.00
C 254.20 90.23 262.64 87.44 263.79 75.23 C 264.93 63.02 259.22 56.58 250.39 47.75 C 241.56 38.93 254.05 29.00 261.00 21.00
C 257.51 17.86 252.57 14.48 251.00 10.00 Z"/>
</g>
<g fill="None" fill-opacity="0.0" stroke="#000000" stroke-opacity="0.97" stroke-width="0.3"><path d="
M 387.00 18.00 
C 376.37 27.56 370.27 32.73 368.66 44.32 C 367.06 55.91 372.61 64.47 381.81 72.75 C 391.02 81.02 376.40 91.38 370.00 99.00
C 374.43 101.98 377.53 106.97 382.00 110.00
C 390.20 98.23 398.65 95.44 399.79 83.23 C 400.93 71.02 395.23 64.58 386.39 55.75 C 377.56 46.93 390.05 37.00 397.00 29.00
C 393.51 25.86 388.57 22.48 387.00 18.00 Z"/>
</g>
<g fill="None" fill-opacity="0.0" stroke="#000000" stroke-opacity="0.97" stroke-width="0.3"><path d="
M 147.00 34.00 
C 136.37 43.56 130.27 48.73 128.66 60.32 C 127.06 71.91 132.61 80.47 141.81 88.75 C 151.02 97.02 136.40 107.38 130.00 115.00
C 134.43 117.98 137.53 122.97 142.00 126.00
C 150.20 114.23 158.65 111.44 159.79 99.23 C 160.93 87.02 155.23 80.58 146.39 71.75 C 137.56 62.93 150.05 53.00 157.00 45.00
C 153.51 41.86 148.57 38.48 147.00 34.00 Z"/>
</g>
<g fill="None" fill-opacity="0.0" stroke="#000000" stroke-opacity="1.00" stroke-width="0.3"><path d="
M 292.00 40.00 
C 289.11 40.21 286.68 41.33 284.00 40.00
C 275.92 49.35 281.80 72.69 279.76 83.75 C 277.72 94.81 275.63 101.75 272.64 111.30 C 269.65 120.85 265.12 127.61 261.00 137.00
C 241.33 119.83 221.19 99.69 204.00 80.00
C 201.11 80.21 198.68 81.33 196.00 80.00
C 187.44 95.99 195.32 127.31 188.71 141.70 C 182.11 156.08 166.73 160.69 154.75 164.74 C 142.77 168.78 129.32 179.91 119.39 192.25 C 109.46 204.59 107.54 216.10 104.99 236.99 C 102.45 257.88 111.82 279.75 125.00 296.00
C 110.45 294.58 96.63 297.90 82.00 296.00 C 67.37 294.10 54.12 296.72 56.00 313.00 C 57.88 329.28 55.33 340.65 56.00 356.00 C 56.67 371.35 56.08 383.90 56.00 399.00 C 55.92 414.10 56.88 426.65 56.00 442.00 C 55.12 457.35 58.27 468.71 56.00 485.00 C 53.73 501.29 64.88 506.07 80.00 504.00 C 95.12 501.93 107.38 504.91 122.00 504.00 C 136.62 503.09 150.55 504.42 165.00 504.00 C 179.45 503.58 193.65 504.20 208.00 504.00 C 222.35 503.80 236.73 504.12 251.00 504.00 C 265.27 503.88 279.86 504.11 294.00 504.00 C 308.14 503.89 323.12 504.18 337.00 504.00 C 350.88 503.82 366.67 504.36 380.00 504.00 C 393.33 503.64 410.90 504.79 423.00 504.00 C 435.10 503.21 453.80 509.15 456.00 495.00 C 458.20 480.85 454.91 466.24 456.00 452.00 C 457.09 437.76 455.29 423.26 456.00 409.00 C 456.71 394.74 455.20 380.24 456.00 366.00 C 456.80 351.76 454.58 337.16 456.00 323.00 C 457.42 308.84 456.33 294.20 440.00 296.00 C 423.67 297.80 412.30 295.04 397.00 296.00 C 381.70 296.96 369.97 295.28 355.00 296.00
C 376.89 276.77 393.10 248.25 398.00 221.00 C 402.90 193.75 397.39 170.20 390.58 151.77 C 383.76 133.34 370.04 119.27 349.75 99.25 C 329.46 79.23 310.30 60.85 292.00 40.00
M 270.00 175.00 
C 269.21 179.65 269.50 185.90 269.00 190.00
C 268.84 198.24 266.57 205.42 264.00 213.00
C 257.33 206.25 250.90 205.10 245.25 195.75 C 239.60 186.40 225.79 186.90 227.00 199.00 C 228.21 211.10 228.21 221.67 219.30 227.30 C 210.40 232.93 202.82 233.04 196.25 241.25 C 189.68 249.46 186.34 255.00 184.22 265.22 C 182.10 275.44 186.05 287.05 190.00 296.00
C 173.88 294.65 151.76 300.89 140.25 288.75 C 128.74 276.61 123.38 266.08 120.67 250.33 C 117.96 234.58 122.66 216.64 131.25 204.25 C 139.85 191.87 149.09 183.77 163.02 179.03 C 176.96 174.28 189.09 169.44 198.25 156.25 C 207.42 143.07 209.62 124.72 208.00 108.00
C 217.17 115.35 227.68 128.38 236.25 135.75 C 244.82 143.12 257.72 164.58 268.25 153.25 C 278.77 141.92 281.88 130.72 287.78 116.78 C 293.67 102.83 295.78 83.77 296.00 68.00
C 307.05 78.38 317.06 88.23 327.75 99.25 C 338.45 110.26 348.77 119.18 358.92 131.08 C 369.07 142.99 376.64 157.74 380.78 173.22 C 384.92 188.71 385.23 213.91 380.02 229.02 C 374.82 244.13 369.40 258.87 358.23 270.23 C 347.06 281.59 336.93 298.07 320.00 296.00
C 328.49 284.89 334.49 271.85 335.98 257.98 C 337.47 244.10 332.62 225.52 325.08 214.92 C 317.53 204.33 307.74 195.42 299.25 186.75 C 290.76 178.09 277.55 159.19 270.00 175.00
M 243.00 217.00 
C 250.53 221.78 261.38 241.80 270.75 231.75 C 280.13 221.70 281.90 208.53 285.00 196.00
C 294.54 204.70 303.19 212.90 310.92 223.08 C 318.65 233.27 323.41 254.10 318.02 266.02 C 312.64 277.95 308.68 292.91 294.00 296.00 C 279.32 299.08 255.34 293.43 240.00 296.00 C 224.66 298.57 204.87 296.63 201.07 280.93 C 197.28 265.22 203.80 251.37 217.23 245.23 C 230.66 239.09 241.94 233.56 243.00 217.00
M 440.00 312.00 
C 440.00 370.67 440.00 429.33 440.00 488.00
C 317.33 488.00 194.67 488.00 72.00 488.00
C 72.00 429.33 72.00 370.67 72.00 312.00
C 194.67 312.00 317.33 312.00 440.00 312.00 Z"/>
</g>
<g fill="None" fill-opacity="0.0" stroke="#F1A744" stroke-opacity="1.00" stroke-width="0.3"><path d="
M 269.00 190.00 
C 269.10 184.88 268.67 179.39 270.00 175.00
C 277.55 159.19 290.76 178.09 299.25 186.75 C 307.74 195.42 317.53 204.33 325.08 214.92 C 332.62 225.52 337.47 244.10 335.98 257.98 C 334.49 271.85 328.49 284.89 320.00 296.00
C 336.93 298.07 347.06 281.59 358.23 270.23 C 369.40 258.87 374.82 244.13 380.02 229.02 C 385.23 213.91 384.92 188.71 380.78 173.22 C 376.64 157.74 369.07 142.99 358.92 131.08 C 348.77 119.18 338.45 110.26 327.75 99.25 C 317.06 88.23 307.05 78.38 296.00 68.00
C 295.78 83.77 293.67 102.83 287.78 116.78 C 281.88 130.72 278.77 141.92 268.25 153.25 C 257.72 164.58 244.82 143.12 236.25 135.75 C 227.68 128.38 217.17 115.35 208.00 108.00
C 209.62 124.72 207.42 143.07 198.25 156.25 C 189.09 169.44 176.96 174.28 163.02 179.03 C 149.09 183.77 139.85 191.87 131.25 204.25 C 122.66 216.64 117.96 234.58 120.67 250.33 C 123.38 266.08 128.74 276.61 140.25 288.75 C 151.76 300.89 173.88 294.65 190.00 296.00
C 186.05 287.05 182.10 275.44 184.22 265.22 C 186.34 255.00 189.68 249.46 196.25 241.25 C 202.82 233.04 210.40 232.93 219.30 227.30 C 228.21 221.67 228.21 211.10 227.00 199.00 C 225.79 186.90 239.60 186.40 245.25 195.75 C 250.90 205.10 257.33 206.25 264.00 213.00
C 266.57 205.42 268.84 198.24 269.00 190.00 Z"/>
</g>
<g fill="None" fill-opacity="0.0" stroke="#6E4C1F" stroke-opacity="1.00" stroke-width="0.3"><path d="
M 269.00 190.00 
C 269.50 185.90 269.21 179.65 270.00 175.00
C 268.67 179.39 269.10 184.88 269.00 190.00 Z"/>
</g>
<g fill="None" fill-opacity="0.0" stroke="#ECCB60" stroke-opacity="1.00" stroke-width="0.3"><path d="
M 243.00 217.00 
C 241.94 233.56 230.66 239.09 217.23 245.23 C 203.80 251.37 197.28 265.22 201.07 280.93 C 204.87 296.63 224.66 298.57 240.00 296.00 C 255.34 293.43 279.32 299.08 294.00 296.00 C 308.68 292.91 312.64 277.95 318.02 266.02 C 323.41 254.10 318.65 233.27 310.92 223.08 C 303.19 212.90 294.54 204.70 285.00 196.00
C 281.90 208.53 280.13 221.70 270.75 231.75 C 261.38 241.80 250.53 221.78 243.00 217.00 Z"/>
</g>
<g fill="None" fill-opacity="0.0" stroke="#549A37" stroke-opacity="1.00" stroke-width="0.3"><path d="
M 440.00 312.00 
C 317.33 312.00 194.67 312.00 72.00 312.00
C 72.00 370.67 72.00 429.33 72.00 488.00
C 194.67 488.00 317.33 488.00 440.00 488.00
C 440.00 429.33 440.00 370.67 440.00 312.00
M 387.00 328.00 
C 395.80 330.67 390.17 343.52 396.77 350.23 C 403.37 356.94 409.14 358.21 418.67 360.33 C 428.20 362.45 422.47 378.70 424.00 387.00 C 425.53 395.30 422.02 409.50 424.00 419.00 C 425.98 428.50 422.98 440.35 413.00 440.00 C 403.02 439.65 398.66 446.57 394.25 453.25 C 389.83 459.93 393.47 473.84 381.00 472.00 C 368.53 470.16 360.48 472.84 349.00 472.00 C 337.52 471.16 328.02 472.40 317.00 472.00 C 305.98 471.60 295.81 472.22 285.00 472.00 C 274.19 471.78 263.69 472.18 253.00 472.00 C 242.31 471.82 231.59 472.27 221.00 472.00 C 210.41 471.73 199.45 472.54 189.00 472.00 C 178.55 471.46 167.16 473.17 157.00 472.00 C 146.84 470.83 134.77 474.73 125.33 471.67 C 115.89 468.61 121.90 456.85 115.23 449.77 C 108.56 442.69 102.89 441.97 93.33 439.67 C 83.77 437.37 89.54 421.38 88.00 413.00 C 86.46 404.62 89.99 390.54 88.00 381.00 C 86.01 371.46 89.03 359.67 99.00 360.00 C 108.97 360.33 113.34 353.44 117.75 346.75 C 122.16 340.07 118.53 326.17 131.00 328.00 C 143.47 329.84 151.52 327.16 163.00 328.00 C 174.48 328.84 183.97 327.60 195.00 328.00 C 206.03 328.40 216.18 327.78 227.00 328.00 C 237.82 328.22 248.30 327.80 259.00 328.00 C 269.70 328.20 280.38 327.69 291.00 328.00 C 301.62 328.31 312.50 327.38 323.00 328.00 C 333.50 328.62 344.73 326.66 355.00 328.00 C 365.27 329.34 377.23 325.03 387.00 328.00 Z"/>
</g>
<g fill="None" fill-opacity="0.0" stroke="#000000" stroke-opacity="1.00" stroke-width="0.3"><path d="
M 387.00 328.00 
C 377.23 325.03 365.27 329.34 355.00 328.00 C 344.73 326.66 333.50 328.62 323.00 328.00 C 312.50 327.38 301.62 328.31 291.00 328.00 C 280.38 327.69 269.70 328.20 259.00 328.00 C 248.30 327.80 237.82 328.22 227.00 328.00 C 216.18 327.78 206.03 328.40 195.00 328.00 C 183.97 327.60 174.48 328.84 163.00 328.00 C 151.52 327.16 143.47 329.84 131.00 328.00 C 118.53 326.17 122.16 340.07 117.75 346.75 C 113.34 353.44 108.97 360.33 99.00 360.00 C 89.03 359.67 86.01 371.46 88.00 381.00 C 89.99 390.54 86.46 404.62 88.00 413.00 C 89.54 421.38 83.77 437.37 93.33 439.67 C 102.89 441.97 108.56 442.69 115.23 449.77 C 121.90 456.85 115.89 468.61 125.33 471.67 C 134.77 474.73 146.84 470.83 157.00 472.00 C 167.16 473.17 178.55 471.46 189.00 472.00 C 199.45 472.54 210.41 471.73 221.00 472.00 C 231.59 472.27 242.31 471.82 253.00 472.00 C 263.69 472.18 274.19 471.78 285.00 472.00 C 295.81 472.22 305.98 471.60 317.00 472.00 C 328.02 472.40 337.52 471.16 349.00 472.00 C 360.48 472.84 368.53 470.16 381.00 472.00 C 393.47 473.84 389.83 459.93 394.25 453.25 C 398.66 446.57 403.02 439.65 413.00 440.00 C 422.98 440.35 425.98 428.50 424.00 419.00 C 422.02 409.50 425.53 395.30 424.00 387.00 C 422.47 378.70 428.20 362.45 418.67 360.33 C 409.14 358.21 403.37 356.94 396.77 350.23 C 390.17 343.52 395.80 330.67 387.00 328.00
M 195.00 439.00 
C 199.05 444.97 205.22 450.25 210.00 456.00
C 185.00 456.00 160.00 456.00 135.00 456.00
C 134.67 450.48 131.16 445.95 129.00 441.00
C 123.30 432.78 113.62 426.81 104.00 425.00
C 104.00 408.33 104.00 391.67 104.00 375.00
C 119.18 372.49 132.50 359.20 135.00 344.00
C 160.00 344.00 185.00 344.00 210.00 344.00
C 182.47 367.22 176.06 409.07 195.00 439.00
M 296.00 361.00 
C 317.60 381.57 316.87 418.65 295.75 439.75 C 274.63 460.86 238.12 461.12 217.00 440.00
C 195.44 418.44 193.97 382.51 216.25 360.25 C 238.53 337.99 273.98 340.04 296.00 361.00
M 317.00 439.00 
C 336.87 409.74 328.86 366.74 302.00 344.00
C 324.00 344.00 346.00 344.00 368.00 344.00
C 371.00 344.00 374.00 344.00 377.00 344.00
C 379.51 359.18 392.80 372.50 408.00 375.00
C 408.00 391.67 408.00 408.33 408.00 425.00
C 392.82 427.51 379.50 440.80 377.00 456.00
C 352.00 456.00 327.00 456.00 302.00 456.00
C 307.04 450.32 312.71 444.78 317.00 439.00 Z"/>
</g>
<g fill="None" fill-opacity="0.0" stroke="#F0F0F0" stroke-opacity="1.00" stroke-width="0.3"><path d="
M 129.00 441.00 
C 133.40 438.86 139.85 440.46 145.00 440.00 C 150.15 439.54 157.04 440.54 162.00 440.00 C 166.96 439.46 174.69 440.97 179.00 440.00 C 183.31 439.03 192.95 442.51 195.00 439.00
C 176.06 409.07 182.47 367.22 210.00 344.00
C 185.00 344.00 160.00 344.00 135.00 344.00
C 132.50 359.20 119.18 372.49 104.00 375.00
C 104.00 391.67 104.00 408.33 104.00 425.00
C 113.62 426.81 123.30 432.78 129.00 441.00
M 149.00 376.00 
C 178.68 381.32 169.58 430.07 139.33 423.67 C 109.08 417.27 118.39 370.52 149.00 376.00 Z"/>
</g>
<g fill="None" fill-opacity="0.0" stroke="#69BE47" stroke-opacity="1.00" stroke-width="0.3"><path d="
M 217.00 440.00 
C 226.20 443.23 238.52 437.58 248.00 440.00
C 246.71 435.98 239.73 435.22 237.25 430.75 C 234.77 426.29 231.21 421.74 232.00 416.00
C 237.33 416.00 242.67 416.00 248.00 416.00
C 247.10 427.45 266.18 425.47 264.00 415.00 C 261.82 404.52 248.18 409.39 241.77 403.23 C 235.36 397.07 230.20 388.95 232.00 380.00 C 233.80 371.05 239.85 364.81 248.00 362.00
C 248.00 358.67 248.00 355.33 248.00 352.00
C 253.33 352.00 258.67 352.00 264.00 352.00
C 264.00 355.33 264.00 358.67 264.00 362.00
C 273.40 364.50 280.21 374.41 280.00 384.00
C 274.67 384.00 269.33 384.00 264.00 384.00
C 265.20 371.27 244.18 375.90 248.00 386.00 C 251.82 396.10 263.92 390.26 270.75 397.25 C 277.58 404.24 281.38 411.65 279.22 421.22 C 277.06 430.80 270.19 434.58 264.00 440.00
C 273.30 439.71 283.31 436.29 289.25 428.25 C 295.18 420.20 298.06 408.69 296.00 398.00 C 293.94 387.31 299.64 371.36 296.00 361.00
C 273.98 340.04 238.53 337.99 216.25 360.25 C 193.97 382.51 195.44 418.44 217.00 440.00 Z"/>
</g>
<g fill="None" fill-opacity="0.0" stroke="#F0F0F0" stroke-opacity="1.00" stroke-width="0.3"><path d="
M 317.00 439.00 
C 319.12 442.64 330.49 438.44 334.01 438.01 C 337.53 437.58 344.43 433.49 347.25 431.25 C 350.07 429.00 357.54 424.71 356.00 421.00
C 335.22 408.79 344.19 376.33 368.00 376.00
C 368.00 365.33 368.00 354.67 368.00 344.00
C 346.00 344.00 324.00 344.00 302.00 344.00
C 328.86 366.74 336.87 409.74 317.00 439.00 Z"/>
</g>
<g fill="None" fill-opacity="0.0" stroke="#CACACA" stroke-opacity="1.00" stroke-width="0.3"><path d="
M 368.00 376.00 
C 383.35 375.79 395.14 391.49 391.07 406.07 C 387.00 420.66 369.57 428.98 356.00 421.00
C 357.54 424.71 350.07 429.00 347.25 431.25 C 344.43 433.49 337.53 437.58 334.01 438.01 C 330.49 438.44 319.12 442.64 317.00 439.00
C 312.71 444.78 307.04 450.32 302.00 456.00
C 327.00 456.00 352.00 456.00 377.00 456.00
C 379.50 440.80 392.82 427.51 408.00 425.00
C 408.00 408.33 408.00 391.67 408.00 375.00
C 392.80 372.50 379.51 359.18 377.00 344.00
C 374.00 344.00 371.00 344.00 368.00 344.00
C 368.00 354.67 368.00 365.33 368.00 376.00 Z"/>
</g>
<g fill="None" fill-opacity="0.0" stroke="#000000" stroke-opacity="1.00" stroke-width="0.3"><path d="
M 248.00 440.00 
C 248.77 442.42 247.42 445.52 248.00 448.00
C 253.33 448.00 258.67 448.00 264.00 448.00
C 264.00 445.33 264.00 442.67 264.00 440.00
C 270.19 434.58 277.06 430.80 279.22 421.22 C 281.38 411.65 277.58 404.24 270.75 397.25 C 263.92 390.26 251.82 396.10 248.00 386.00 C 244.18 375.90 265.20 371.27 264.00 384.00
C 269.33 384.00 274.67 384.00 280.00 384.00
C 280.21 374.41 273.40 364.50 264.00 362.00
C 264.00 358.67 264.00 355.33 264.00 352.00
C 258.67 352.00 253.33 352.00 248.00 352.00
C 248.00 355.33 248.00 358.67 248.00 362.00
C 239.85 364.81 233.80 371.05 232.00 380.00 C 230.20 388.95 235.36 397.07 241.77 403.23 C 248.18 409.39 261.82 404.52 264.00 415.00 C 266.18 425.47 247.10 427.45 248.00 416.00
C 242.67 416.00 237.33 416.00 232.00 416.00
C 231.21 421.74 234.77 426.29 237.25 430.75 C 239.73 435.22 246.71 435.98 248.00 440.00 Z"/>
</g>
<g fill="None" fill-opacity="0.0" stroke="#539837" stroke-opacity="1.00" stroke-width="0.3"><path d="
M 264.00 440.00 
C 264.00 442.67 264.00 445.33 264.00 448.00
C 258.67 448.00 253.33 448.00 248.00 448.00
C 247.42 445.52 248.77 442.42 248.00 440.00
C 238.52 437.58 226.20 443.23 217.00 440.00
C 238.12 461.12 274.63 460.86 295.75 439.75 C 316.87 418.65 317.60 381.57 296.00 361.00
C 299.64 371.36 293.94 387.31 296.00 398.00 C 298.06 408.69 295.18 420.20 289.25 428.25 C 283.31 436.29 273.30 439.71 264.00 440.00 Z"/>
</g>
<g fill="None" fill-opacity="0.0" stroke="#000000" stroke-opacity="1.00" stroke-width="0.3"><path d="
M 149.00 376.00 
C 118.39 370.52 109.08 417.27 139.33 423.67 C 169.58 430.07 178.68 381.32 149.00 376.00
M 137.00 404.00 
C 134.24 398.48 137.64 392.00 144.00 392.00
C 162.15 392.00 144.66 419.32 137.00 404.00 Z"/>
</g>
<g fill="None" fill-opacity="0.0" stroke="#000000" stroke-opacity="1.00" stroke-width="0.3"><path d="
M 356.00 421.00 
C 369.57 428.98 387.00 420.66 391.07 406.07 C 395.14 391.49 383.35 375.79 368.00 376.00
C 344.19 376.33 335.22 408.79 356.00 421.00
M 361.00 404.00 
C 358.24 398.48 361.64 392.00 368.00 392.00
C 386.15 392.00 368.66 419.32 361.00 404.00 Z"/>
</g>
<g fill="None" fill-opacity="0.0" stroke="#64B643" stroke-opacity="1.00" stroke-width="0.3"><path d="
M 137.00 404.00 
C 140.38 405.95 145.31 394.26 144.00 392.00
C 137.64 392.00 134.24 398.48 137.00 404.00 Z"/>
</g>
<g fill="None" fill-opacity="0.0" stroke="#519435" stroke-opacity="1.00" stroke-width="0.3"><path d="
M 137.00 404.00 
C 144.66 419.32 162.15 392.00 144.00 392.00
C 145.31 394.26 140.38 405.95 137.00 404.00 Z"/>
</g>
<g fill="None" fill-opacity="0.0" stroke="#64B643" stroke-opacity="1.00" stroke-width="0.3"><path d="
M 361.00 404.00 
C 364.38 405.95 369.31 394.26 368.00 392.00
C 361.64 392.00 358.24 398.48 361.00 404.00 Z"/>
</g>
<g fill="None" fill-opacity="0.0" stroke="#519435" stroke-opacity="1.00" stroke-width="0.3"><path d="
M 361.00 404.00 
C 368.66 419.32 386.15 392.00 368.00 392.00
C 369.31 394.26 364.38 405.95 361.00 404.00 Z"/>
</g>
<g fill="None" fill-opacity="0.0" stroke="#CBCBCB" stroke-opacity="1.00" stroke-width="0.3"><path d="
M 129.00 441.00 
C 131.16 445.95 134.67 450.48 135.00 456.00
C 160.00 456.00 185.00 456.00 210.00 456.00
C 205.22 450.25 199.05 444.97 195.00 439.00
C 192.95 442.51 183.31 439.03 179.00 440.00 C 174.69 440.97 166.96 439.46 162.00 440.00 C 157.04 440.54 150.15 439.54 145.00 440.00 C 139.85 440.46 133.40 438.86 129.00 441.00 Z"/>
</g>
<g fill="#000000" fill-opacity="0.00" stroke="None">
<path d="
M 0.00 512.00 
L 512.00 512.00
L 512.00 0.00
L 0.00 0.00
L 0.00 512.00
M 251.00 10.00 
C 252.57 14.48 257.51 17.86 261.00 21.00
C 254.05 29.00 241.56 38.93 250.39 47.75 C 259.22 56.58 264.93 63.02 263.79 75.23 C 262.64 87.44 254.20 90.23 246.00 102.00
C 241.53 98.97 238.43 93.98 234.00 91.00
C 240.40 83.38 255.02 73.02 245.81 64.75 C 236.61 56.47 231.06 47.91 232.66 36.32 C 234.27 24.73 240.37 19.56 251.00 10.00
M 387.00 18.00 
C 388.57 22.48 393.51 25.86 397.00 29.00
C 390.05 37.00 377.56 46.93 386.39 55.75 C 395.23 64.58 400.93 71.02 399.79 83.23 C 398.65 95.44 390.20 98.23 382.00 110.00
C 377.53 106.97 374.43 101.98 370.00 99.00
C 376.40 91.38 391.02 81.02 381.81 72.75 C 372.61 64.47 367.06 55.91 368.66 44.32 C 370.27 32.73 376.37 27.56 387.00 18.00
M 147.00 34.00 
C 148.57 38.48 153.51 41.86 157.00 45.00
C 150.05 53.00 137.56 62.93 146.39 71.75 C 155.23 80.58 160.93 87.02 159.79 99.23 C 158.65 111.44 150.20 114.23 142.00 126.00
C 137.53 122.97 134.43 117.98 130.00 115.00
C 136.40 107.38 151.02 97.02 141.81 88.75 C 132.61 80.47 127.06 71.91 128.66 60.32 C 130.27 48.73 136.37 43.56 147.00 34.00
M 292.00 40.00 
C 310.30 60.85 329.46 79.23 349.75 99.25 C 370.04 119.27 383.76 133.34 390.58 151.77 C 397.39 170.20 402.90 193.75 398.00 221.00 C 393.10 248.25 376.89 276.77 355.00 296.00
C 369.97 295.28 381.70 296.96 397.00 296.00 C 412.30 295.04 423.67 297.80 440.00 296.00 C 456.33 294.20 457.42 308.84 456.00 323.00 C 454.58 337.16 456.80 351.76 456.00 366.00 C 455.20 380.24 456.71 394.74 456.00 409.00 C 455.29 423.26 457.09 437.76 456.00 452.00 C 454.91 466.24 458.20 480.85 456.00 495.00 C 453.80 509.15 435.10 503.21 423.00 504.00 C 410.90 504.79 393.33 503.64 380.00 504.00 C 366.67 504.36 350.88 503.82 337.00 504.00 C 323.12 504.18 308.14 503.89 294.00 504.00 C 279.86 504.11 265.27 503.88 251.00 504.00 C 236.73 504.12 222.35 503.80 208.00 504.00 C 193.65 504.20 179.45 503.58 165.00 504.00 C 150.55 504.42 136.62 503.09 122.00 504.00 C 107.38 504.91 95.12 501.93 80.00 504.00 C 64.88 506.07 53.73 501.29 56.00 485.00 C 58.27 468.71 55.12 457.35 56.00 442.00 C 56.88 426.65 55.92 414.10 56.00 399.00 C 56.08 383.90 56.67 371.35 56.00 356.00 C 55.33 340.65 57.88 329.28 56.00 313.00 C 54.12 296.72 67.37 294.10 82.00 296.00 C 96.63 297.90 110.45 294.58 125.00 296.00
C 111.82 279.75 102.45 257.88 104.99 236.99 C 107.54 216.10 109.46 204.59 119.39 192.25 C 129.32 179.91 142.77 168.78 154.75 164.74 C 166.73 160.69 182.11 156.08 188.71 141.70 C 195.32 127.31 187.44 95.99 196.00 80.00
C 198.68 81.33 201.11 80.21 204.00 80.00
C 221.19 99.69 241.33 119.83 261.00 137.00
C 265.12 127.61 269.65 120.85 272.64 111.30 C 275.63 101.75 277.72 94.81 279.76 83.75 C 281.80 72.69 275.92 49.35 284.00 40.00
C 286.68 41.33 289.11 40.21 292.00 40.00 Z"/>
</g>
<g fill="#000000" fill-opacity="0.97" stroke="None">
<path d="
M 251.00 10.00 
C 240.37 19.56 234.27 24.73 232.66 36.32 C 231.06 47.91 236.61 56.47 245.81 64.75 C 255.02 73.02 240.40 83.38 234.00 91.00
C 238.43 93.98 241.53 98.97 246.00 102.00
C 254.20 90.23 262.64 87.44 263.79 75.23 C 264.93 63.02 259.22 56.58 250.39 47.75 C 241.56 38.93 254.05 29.00 261.00 21.00
C 257.51 17.86 252.57 14.48 251.00 10.00 Z"/>
</g>
<g fill="#000000" fill-opacity="0.97" stroke="None">
<path d="
M 387.00 18.00 
C 376.37 27.56 370.27 32.73 368.66 44.32 C 367.06 55.91 372.61 64.47 381.81 72.75 C 391.02 81.02 376.40 91.38 370.00 99.00
C 374.43 101.98 377.53 106.97 382.00 110.00
C 390.20 98.23 398.65 95.44 399.79 83.23 C 400.93 71.02 395.23 64.58 386.39 55.75 C 377.56 46.93 390.05 37.00 397.00 29.00
C 393.51 25.86 388.57 22.48 387.00 18.00 Z"/>
</g>
<g fill="#000000" fill-opacity="0.97" stroke="None">
<path d="
M 147.00 34.00 
C 136.37 43.56 130.27 48.73 128.66 60.32 C 127.06 71.91 132.61 80.47 141.81 88.75 C 151.02 97.02 136.40 107.38 130.00 115.00
C 134.43 117.98 137.53 122.97 142.00 126.00
C 150.20 114.23 158.65 111.44 159.79 99.23 C 160.93 87.02 155.23 80.58 146.39 71.75 C 137.56 62.93 150.05 53.00 157.00 45.00
C 153.51 41.86 148.57 38.48 147.00 34.00 Z"/>
</g>
<g fill="#000000" fill-opacity="1.00" stroke="None">
<path d="
M 292.00 40.00 
C 289.11 40.21 286.68 41.33 284.00 40.00
C 275.92 49.35 281.80 72.69 279.76 83.75 C 277.72 94.81 275.63 101.75 272.64 111.30 C 269.65 120.85 265.12 127.61 261.00 137.00
C 241.33 119.83 221.19 99.69 204.00 80.00
C 201.11 80.21 198.68 81.33 196.00 80.00
C 187.44 95.99 195.32 127.31 188.71 141.70 C 182.11 156.08 166.73 160.69 154.75 164.74 C 142.77 168.78 129.32 179.91 119.39 192.25 C 109.46 204.59 107.54 216.10 104.99 236.99 C 102.45 257.88 111.82 279.75 125.00 296.00
C 110.45 294.58 96.63 297.90 82.00 296.00 C 67.37 294.10 54.12 296.72 56.00 313.00 C 57.88 329.28 55.33 340.65 56.00 356.00 C 56.67 371.35 56.08 383.90 56.00 399.00 C 55.92 414.10 56.88 426.65 56.00 442.00 C 55.12 457.35 58.27 468.71 56.00 485.00 C 53.73 501.29 64.88 506.07 80.00 504.00 C 95.12 501.93 107.38 504.91 122.00 504.00 C 136.62 503.09 150.55 504.42 165.00 504.00 C 179.45 503.58 193.65 504.20 208.00 504.00 C 222.35 503.80 236.73 504.12 251.00 504.00 C 265.27 503.88 279.86 504.11 294.00 504.00 C 308.14 503.89 323.12 504.18 337.00 504.00 C 350.88 503.82 366.67 504.36 380.00 504.00 C 393.33 503.64 410.90 504.79 423.00 504.00 C 435.10 503.21 453.80 509.15 456.00 495.00 C 458.20 480.85 454.91 466.24 456.00 452.00 C 457.09 437.76 455.29 423.26 456.00 409.00 C 456.71 394.74 455.20 380.24 456.00 366.00 C 456.80 351.76 454.58 337.16 456.00 323.00 C 457.42 308.84 456.33 294.20 440.00 296.00 C 423.67 297.80 412.30 295.04 397.00 296.00 C 381.70 296.96 369.97 295.28 355.00 296.00
C 376.89 276.77 393.10 248.25 398.00 221.00 C 402.90 193.75 397.39 170.20 390.58 151.77 C 383.76 133.34 370.04 119.27 349.75 99.25 C 329.46 79.23 310.30 60.85 292.00 40.00
M 270.00 175.00 
C 269.21 179.65 269.50 185.90 269.00 190.00
C 268.84 198.24 266.57 205.42 264.00 213.00
C 257.33 206.25 250.90 205.10 245.25 195.75 C 239.60 186.40 225.79 186.90 227.00 199.00 C 228.21 211.10 228.21 221.67 219.30 227.30 C 210.40 232.93 202.82 233.04 196.25 241.25 C 189.68 249.46 186.34 255.00 184.22 265.22 C 182.10 275.44 186.05 287.05 190.00 296.00
C 173.88 294.65 151.76 300.89 140.25 288.75 C 128.74 276.61 123.38 266.08 120.67 250.33 C 117.96 234.58 122.66 216.64 131.25 204.25 C 139.85 191.87 149.09 183.77 163.02 179.03 C 176.96 174.28 189.09 169.44 198.25 156.25 C 207.42 143.07 209.62 124.72 208.00 108.00
C 217.17 115.35 227.68 128.38 236.25 135.75 C 244.82 143.12 257.72 164.58 268.25 153.25 C 278.77 141.92 281.88 130.72 287.78 116.78 C 293.67 102.83 295.78 83.77 296.00 68.00
C 307.05 78.38 317.06 88.23 327.75 99.25 C 338.45 110.26 348.77 119.18 358.92 131.08 C 369.07 142.99 376.64 157.74 380.78 173.22 C 384.92 188.71 385.23 213.91 380.02 229.02 C 374.82 244.13 369.40 258.87 358.23 270.23 C 347.06 281.59 336.93 298.07 320.00 296.00
C 328.49 284.89 334.49 271.85 335.98 257.98 C 337.47 244.10 332.62 225.52 325.08 214.92 C 317.53 204.33 307.74 195.42 299.25 186.75 C 290.76 178.09 277.55 159.19 270.00 175.00
M 243.00 217.00 
C 250.53 221.78 261.38 241.80 270.75 231.75 C 280.13 221.70 281.90 208.53 285.00 196.00
C 294.54 204.70 303.19 212.90 310.92 223.08 C 318.65 233.27 323.41 254.10 318.02 266.02 C 312.64 277.95 308.68 292.91 294.00 296.00 C 279.32 299.08 255.34 293.43 240.00 296.00 C 224.66 298.57 204.87 296.63 201.07 280.93 C 197.28 265.22 203.80 251.37 217.23 245.23 C 230.66 239.09 241.94 233.56 243.00 217.00
M 440.00 312.00 
C 440.00 370.67 440.00 429.33 440.00 488.00
C 317.33 488.00 194.67 488.00 72.00 488.00
C 72.00 429.33 72.00 370.67 72.00 312.00
C 194.67 312.00 317.33 312.00 440.00 312.00 Z"/>
</g>
<g fill="#F1A744" fill-opacity="1.00" stroke="None">
<path d="
M 269.00 190.00 
C 269.10 184.88 268.67 179.39 270.00 175.00
C 277.55 159.19 290.76 178.09 299.25 186.75 C 307.74 195.42 317.53 204.33 325.08 214.92 C 332.62 225.52 337.47 244.10 335.98 257.98 C 334.49 271.85 328.49 284.89 320.00 296.00
C 336.93 298.07 347.06 281.59 358.23 270.23 C 369.40 258.87 374.82 244.13 380.02 229.02 C 385.23 213.91 384.92 188.71 380.78 173.22 C 376.64 157.74 369.07 142.99 358.92 131.08 C 348.77 119.18 338.45 110.26 327.75 99.25 C 317.06 88.23 307.05 78.38 296.00 68.00
C 295.78 83.77 293.67 102.83 287.78 116.78 C 281.88 130.72 278.77 141.92 268.25 153.25 C 257.72 164.58 244.82 143.12 236.25 135.75 C 227.68 128.38 217.17 115.35 208.00 108.00
C 209.62 124.72 207.42 143.07 198.25 156.25 C 189.09 169.44 176.96 174.28 163.02 179.03 C 149.09 183.77 139.85 191.87 131.25 204.25 C 122.66 216.64 117.96 234.58 120.67 250.33 C 123.38 266.08 128.74 276.61 140.25 288.75 C 151.76 300.89 173.88 294.65 190.00 296.00
C 186.05 287.05 182.10 275.44 184.22 265.22 C 186.34 255.00 189.68 249.46 196.25 241.25 C 202.82 233.04 210.40 232.93 219.30 227.30 C 228.21 221.67 228.21 211.10 227.00 199.00 C 225.79 186.90 239.60 186.40 245.25 195.75 C 250.90 205.10 257.33 206.25 264.00 213.00
C 266.57 205.42 268.84 198.24 269.00 190.00 Z"/>
</g>
<g fill="#6E4C1F" fill-opacity="1.00" stroke="None">
<path d="
M 269.00 190.00 
C 269.50 185.90 269.21 179.65 270.00 175.00
C 268.67 179.39 269.10 184.88 269.00 190.00 Z"/>
</g>
<g fill="#ECCB60" fill-opacity="1.00" stroke="None">
<path d="
M 243.00 217.00 
C 241.94 233.56 230.66 239.09 217.23 245.23 C 203.80 251.37 197.28 265.22 201.07 280.93 C 204.87 296.63 224.66 298.57 240.00 296.00 C 255.34 293.43 279.32 299.08 294.00 296.00 C 308.68 292.91 312.64 277.95 318.02 266.02 C 323.41 254.10 318.65 233.27 310.92 223.08 C 303.19 212.90 294.54 204.70 285.00 196.00
C 281.90 208.53 280.13 221.70 270.75 231.75 C 261.38 241.80 250.53 221.78 243.00 217.00 Z"/>
</g>
<g fill="#549A37" fill-opacity="1.00" stroke="None">
<path d="
M 440.00 312.00 
C 317.33 312.00 194.67 312.00 72.00 312.00
C 72.00 370.67 72.00 429.33 72.00 488.00
C 194.67 488.00 317.33 488.00 440.00 488.00
C 440.00 429.33 440.00 370.67 440.00 312.00
M 387.00 328.00 
C 395.80 330.67 390.17 343.52 396.77 350.23 C 403.37 356.94 409.14 358.21 418.67 360.33 C 428.20 362.45 422.47 378.70 424.00 387.00 C 425.53 395.30 422.02 409.50 424.00 419.00 C 425.98 428.50 422.98 440.35 413.00 440.00 C 403.02 439.65 398.66 446.57 394.25 453.25 C 389.83 459.93 393.47 473.84 381.00 472.00 C 368.53 470.16 360.48 472.84 349.00 472.00 C 337.52 471.16 328.02 472.40 317.00 472.00 C 305.98 471.60 295.81 472.22 285.00 472.00 C 274.19 471.78 263.69 472.18 253.00 472.00 C 242.31 471.82 231.59 472.27 221.00 472.00 C 210.41 471.73 199.45 472.54 189.00 472.00 C 178.55 471.46 167.16 473.17 157.00 472.00 C 146.84 470.83 134.77 474.73 125.33 471.67 C 115.89 468.61 121.90 456.85 115.23 449.77 C 108.56 442.69 102.89 441.97 93.33 439.67 C 83.77 437.37 89.54 421.38 88.00 413.00 C 86.46 404.62 89.99 390.54 88.00 381.00 C 86.01 371.46 89.03 359.67 99.00 360.00 C 108.97 360.33 113.34 353.44 117.75 346.75 C 122.16 340.07 118.53 326.17 131.00 328.00 C 143.47 329.84 151.52 327.16 163.00 328.00 C 174.48 328.84 183.97 327.60 195.00 328.00 C 206.03 328.40 216.18 327.78 227.00 328.00 C 237.82 328.22 248.30 327.80 259.00 328.00 C 269.70 328.20 280.38 327.69 291.00 328.00 C 301.62 328.31 312.50 327.38 323.00 328.00 C 333.50 328.62 344.73 326.66 355.00 328.00 C 365.27 329.34 377.23 325.03 387.00 328.00 Z"/>
</g>
<g fill="#000000" fill-opacity="1.00" stroke="None">
<path d="
M 387.00 328.00 
C 377.23 325.03 365.27 329.34 355.00 328.00 C 344.73 326.66 333.50 328.62 323.00 328.00 C 312.50 327.38 301.62 328.31 291.00 328.00 C 280.38 327.69 269.70 328.20 259.00 328.00 C 248.30 327.80 237.82 328.22 227.00 328.00 C 216.18 327.78 206.03 328.40 195.00 328.00 C 183.97 327.60 174.48 328.84 163.00 328.00 C 151.52 327.16 143.47 329.84 131.00 328.00 C 118.53 326.17 122.16 340.07 117.75 346.75 C 113.34 353.44 108.97 360.33 99.00 360.00 C 89.03 359.67 86.01 371.46 88.00 381.00 C 89.99 390.54 86.46 404.62 88.00 413.00 C 89.54 421.38 83.77 437.37 93.33 439.67 C 102.89 441.97 108.56 442.69 115.23 449.77 C 121.90 456.85 115.89 468.61 125.33 471.67 C 134.77 474.73 146.84 470.83 157.00 472.00 C 167.16 473.17 178.55 471.46 189.00 472.00 C 199.45 472.54 210.41 471.73 221.00 472.00 C 231.59 472.27 242.31 471.82 253.00 472.00 C 263.69 472.18 274.19 471.78 285.00 472.00 C 295.81 472.22 305.98 471.60 317.00 472.00 C 328.02 472.40 337.52 471.16 349.00 472.00 C 360.48 472.84 368.53 470.16 381.00 472.00 C 393.47 473.84 389.83 459.93 394.25 453.25 C 398.66 446.57 403.02 439.65 413.00 440.00 C 422.98 440.35 425.98 428.50 424.00 419.00 C 422.02 409.50 425.53 395.30 424.00 387.00 C 422.47 378.70 428.20 362.45 418.67 360.33 C 409.14 358.21 403.37 356.94 396.77 350.23 C 390.17 343.52 395.80 330.67 387.00 328.00
M 195.00 439.00 
C 199.05 444.97 205.22 450.25 210.00 456.00
C 185.00 456.00 160.00 456.00 135.00 456.00
C 134.67 450.48 131.16 445.95 129.00 441.00
C 123.30 432.78 113.62 426.81 104.00 425.00
C 104.00 408.33 104.00 391.67 104.00 375.00
C 119.18 372.49 132.50 359.20 135.00 344.00
C 160.00 344.00 185.00 344.00 210.00 344.00
C 182.47 367.22 176.06 409.07 195.00 439.00
M 296.00 361.00 
C 317.60 381.57 316.87 418.65 295.75 439.75 C 274.63 460.86 238.12 461.12 217.00 440.00
C 195.44 418.44 193.97 382.51 216.25 360.25 C 238.53 337.99 273.98 340.04 296.00 361.00
M 317.00 439.00 
C 336.87 409.74 328.86 366.74 302.00 344.00
C 324.00 344.00 346.00 344.00 368.00 344.00
C 371.00 344.00 374.00 344.00 377.00 344.00
C 379.51 359.18 392.80 372.50 408.00 375.00
C 408.00 391.67 408.00 408.33 408.00 425.00
C 392.82 427.51 379.50 440.80 377.00 456.00
C 352.00 456.00 327.00 456.00 302.00 456.00
C 307.04 450.32 312.71 444.78 317.00 439.00 Z"/>
</g>
<g fill="#F0F0F0" fill-opacity="1.00" stroke="None">
<path d="
M 129.00 441.00 
C 133.40 438.86 139.85 440.46 145.00 440.00 C 150.15 439.54 157.04 440.54 162.00 440.00 C 166.96 439.46 174.69 440.97 179.00 440.00 C 183.31 439.03 192.95 442.51 195.00 439.00
C 176.06 409.07 182.47 367.22 210.00 344.00
C 185.00 344.00 160.00 344.00 135.00 344.00
C 132.50 359.20 119.18 372.49 104.00 375.00
C 104.00 391.67 104.00 408.33 104.00 425.00
C 113.62 426.81 123.30 432.78 129.00 441.00
M 149.00 376.00 
C 178.68 381.32 169.58 430.07 139.33 423.67 C 109.08 417.27 118.39 370.52 149.00 376.00 Z"/>
</g>
<g fill="#69BE47" fill-opacity="1.00" stroke="None">
<path d="
M 217.00 440.00 
C 226.20 443.23 238.52 437.58 248.00 440.00
C 246.71 435.98 239.73 435.22 237.25 430.75 C 234.77 426.29 231.21 421.74 232.00 416.00
C 237.33 416.00 242.67 416.00 248.00 416.00
C 247.10 427.45 266.18 425.47 264.00 415.00 C 261.82 404.52 248.18 409.39 241.77 403.23 C 235.36 397.07 230.20 388.95 232.00 380.00 C 233.80 371.05 239.85 364.81 248.00 362.00
C 248.00 358.67 248.00 355.33 248.00 352.00
C 253.33 352.00 258.67 352.00 264.00 352.00
C 264.00 355.33 264.00 358.67 264.00 362.00
C 273.40 364.50 280.21 374.41 280.00 384.00
C 274.67 384.00 269.33 384.00 264.00 384.00
C 265.20 371.27 244.18 375.90 248.00 386.00 C 251.82 396.10 263.92 390.26 270.75 397.25 C 277.58 404.24 281.38 411.65 279.22 421.22 C 277.06 430.80 270.19 434.58 264.00 440.00
C 273.30 439.71 283.31 436.29 289.25 428.25 C 295.18 420.20 298.06 408.69 296.00 398.00 C 293.94 387.31 299.64 371.36 296.00 361.00
C 273.98 340.04 238.53 337.99 216.25 360.25 C 193.97 382.51 195.44 418.44 217.00 440.00 Z"/>
</g>
<g fill="#F0F0F0" fill-opacity="1.00" stroke="None">
<path d="
M 317.00 439.00 
C 319.12 442.64 330.49 438.44 334.01 438.01 C 337.53 437.58 344.43 433.49 347.25 431.25 C 350.07 429.00 357.54 424.71 356.00 421.00
C 335.22 408.79 344.19 376.33 368.00 376.00
C 368.00 365.33 368.00 354.67 368.00 344.00
C 346.00 344.00 324.00 344.00 302.00 344.00
C 328.86 366.74 336.87 409.74 317.00 439.00 Z"/>
</g>
<g fill="#CACACA" fill-opacity="1.00" stroke="None">
<path d="
M 368.00 376.00 
C 383.35 375.79 395.14 391.49 391.07 406.07 C 387.00 420.66 369.57 428.98 356.00 421.00
C 357.54 424.71 350.07 429.00 347.25 431.25 C 344.43 433.49 337.53 437.58 334.01 438.01 C 330.49 438.44 319.12 442.64 317.00 439.00
C 312.71 444.78 307.04 450.32 302.00 456.00
C 327.00 456.00 352.00 456.00 377.00 456.00
C 379.50 440.80 392.82 427.51 408.00 425.00
C 408.00 408.33 408.00 391.67 408.00 375.00
C 392.80 372.50 379.51 359.18 377.00 344.00
C 374.00 344.00 371.00 344.00 368.00 344.00
C 368.00 354.67 368.00 365.33 368.00 376.00 Z"/>
</g>
<g fill="#000000" fill-opacity="1.00" stroke="None">
<path d="
M 248.00 440.00 
C 248.77 442.42 247.42 445.52 248.00 448.00
C 253.33 448.00 258.67 448.00 264.00 448.00
C 264.00 445.33 264.00 442.67 264.00 440.00
C 270.19 434.58 277.06 430.80 279.22 421.22 C 281.38 411.65 277.58 404.24 270.75 397.25 C 263.92 390.26 251.82 396.10 248.00 386.00 C 244.18 375.90 265.20 371.27 264.00 384.00
C 269.33 384.00 274.67 384.00 280.00 384.00
C 280.21 374.41 273.40 364.50 264.00 362.00
C 264.00 358.67 264.00 355.33 264.00 352.00
C 258.67 352.00 253.33 352.00 248.00 352.00
C 248.00 355.33 248.00 358.67 248.00 362.00
C 239.85 364.81 233.80 371.05 232.00 380.00 C 230.20 388.95 235.36 397.07 241.77 403.23 C 248.18 409.39 261.82 404.52 264.00 415.00 C 266.18 425.47 247.10 427.45 248.00 416.00
C 242.67 416.00 237.33 416.00 232.00 416.00
C 231.21 421.74 234.77 426.29 237.25 430.75 C 239.73 435.22 246.71 435.98 248.00 440.00 Z"/>
</g>
<g fill="#539837" fill-opacity="1.00" stroke="None">
<path d="
M 264.00 440.00 
C 264.00 442.67 264.00 445.33 264.00 448.00
C 258.67 448.00 253.33 448.00 248.00 448.00
C 247.42 445.52 248.77 442.42 248.00 440.00
C 238.52 437.58 226.20 443.23 217.00 440.00
C 238.12 461.12 274.63 460.86 295.75 439.75 C 316.87 418.65 317.60 381.57 296.00 361.00
C 299.64 371.36 293.94 387.31 296.00 398.00 C 298.06 408.69 295.18 420.20 289.25 428.25 C 283.31 436.29 273.30 439.71 264.00 440.00 Z"/>
</g>
<g fill="#000000" fill-opacity="1.00" stroke="None">
<path d="
M 149.00 376.00 
C 118.39 370.52 109.08 417.27 139.33 423.67 C 169.58 430.07 178.68 381.32 149.00 376.00
M 137.00 404.00 
C 134.24 398.48 137.64 392.00 144.00 392.00
C 162.15 392.00 144.66 419.32 137.00 404.00 Z"/>
</g>
<g fill="#000000" fill-opacity="1.00" stroke="None">
<path d="
M 356.00 421.00 
C 369.57 428.98 387.00 420.66 391.07 406.07 C 395.14 391.49 383.35 375.79 368.00 376.00
C 344.19 376.33 335.22 408.79 356.00 421.00
M 361.00 404.00 
C 358.24 398.48 361.64 392.00 368.00 392.00
C 386.15 392.00 368.66 419.32 361.00 404.00 Z"/>
</g>
<g fill="#64B643" fill-opacity="1.00" stroke="None">
<path d="
M 137.00 404.00 
C 140.38 405.95 145.31 394.26 144.00 392.00
C 137.64 392.00 134.24 398.48 137.00 404.00 Z"/>
</g>
<g fill="#519435" fill-opacity="1.00" stroke="None">
<path d="
M 137.00 404.00 
C 144.66 419.32 162.15 392.00 144.00 392.00
C 145.31 394.26 140.38 405.95 137.00 404.00 Z"/>
</g>
<g fill="#64B643" fill-opacity="1.00" stroke="None">
<path d="
M 361.00 404.00 
C 364.38 405.95 369.31 394.26 368.00 392.00
C 361.64 392.00 358.24 398.48 361.00 404.00 Z"/>
</g>
<g fill="#519435" fill-opacity="1.00" stroke="None">
<path d="
M 361.00 404.00 
C 368.66 419.32 386.15 392.00 368.00 392.00
C 369.31 394.26 364.38 405.95 361.00 404.00 Z"/>
</g>
<g fill="#CBCBCB" fill-opacity="1.00" stroke="None">
<path d="
M 129.00 441.00 
C 131.16 445.95 134.67 450.48 135.00 456.00
C 160.00 456.00 185.00 456.00 210.00 456.00
C 205.22 450.25 199.05 444.97 195.00 439.00
C 192.95 442.51 183.31 439.03 179.00 440.00 C 174.69 440.97 166.96 439.46 162.00 440.00 C 157.04 440.54 150.15 439.54 145.00 440.00 C 139.85 440.46 133.40 438.86 129.00 441.00 Z"/>
</g>
</svg>